<svg xmlns="http://www.w3.org/2000/svg" viewBox="0 0 192 192" fill="none">
  <rect width="192" height="192" rx="32" fill="#ea580c"/>
  <path d="M96 48c-26.5 0-48 21.5-48 48s21.5 48 48 48 48-21.5 48-48-21.5-48-48-48zm0 80c-17.7 0-32-14.3-32-32s14.3-32 32-32 32 14.3 32 32-14.3 32-32 32z" fill="white"/>
  <circle cx="96" cy="96" r="16" fill="white"/>
  <path d="M96 64v-8M96 136v8M128 96h8M56 96h8M118.6 73.4l5.7-5.7M67.7 124.3l5.7-5.7M118.6 118.6l5.7 5.7M67.7 67.7l5.7 5.7" stroke="white" stroke-width="4" stroke-linecap="round"/>
</svg>
