<svg xmlns="http://www.w3.org/2000/svg" viewBox="0 0 512 512" fill="none">
  <rect width="512" height="512" rx="64" fill="#ea580c"/>
  <path d="M256 128c-70.7 0-128 57.3-128 128s57.3 128 128 128 128-57.3 128-128-57.3-128-128-128zm0 213.3c-47.1 0-85.3-38.2-85.3-85.3s38.2-85.3 85.3-85.3 85.3 38.2 85.3 85.3-38.2 85.3-85.3 85.3z" fill="white"/>
  <circle cx="256" cy="256" r="42.7" fill="white"/>
  <path d="M256 170.7V149.3M256 362.7v21.3M341.3 256h21.4M149.3 256h21.4M316.2 195.8l15.2-15.1M180.6 331.3l15.1-15.1M316.2 316.2l15.2 15.1M180.6 180.6l15.1 15.1" stroke="white" stroke-width="10.7" stroke-linecap="round"/>
</svg>
